<svg width="1626" height="1626" viewBox="0 0 1626 1626" fill="none" xmlns="http://www.w3.org/2000/svg">
<rect width="1626" height="1626" rx="813" fill="white"/>
<path fill-rule="evenodd" clip-rule="evenodd" d="M1056.91 650.4C1056.91 785.102 947.712 894.3 813.01 894.3C678.308 894.3 569.11 785.102 569.11 650.4C569.11 515.698 678.308 406.5 813.01 406.5C947.712 406.5 1056.91 515.698 1056.91 650.4ZM975.61 650.4C975.61 740.201 902.811 813 813.01 813C723.208 813 650.41 740.201 650.41 650.4C650.41 560.598 723.208 487.8 813.01 487.8C902.811 487.8 975.61 560.598 975.61 650.4Z" fill="black"/>
<path d="M813.01 1016.25C549.826 1016.25 325.587 1171.87 240.168 1389.91C260.977 1410.57 282.897 1430.11 305.832 1448.44C369.438 1248.27 568.977 1097.55 813.01 1097.55C1057.04 1097.55 1256.58 1248.27 1320.19 1448.44C1343.12 1430.11 1365.04 1410.57 1385.85 1389.91C1300.43 1171.88 1076.19 1016.25 813.01 1016.25Z" fill="black"/>
</svg>
