<svg width="1050" height="1051" viewBox="0 0 1050 1051" fill="none" xmlns="http://www.w3.org/2000/svg">
<path d="M181.25 900.4C205.269 873.499 317.763 749.706 350.729 749.706H699.292C747.063 749.706 844.582 852.322 868.75 888.494M1025 525.4C1025 801.542 801.142 1025.4 525 1025.4C248.858 1025.4 25 801.542 25 525.4C25 249.258 248.858 25.4 525 25.4C801.142 25.4 1025 249.258 1025 525.4ZM704.106 354.981C704.106 259.59 623.578 181.65 525.015 181.65C426.454 181.65 345.924 259.59 345.924 354.981C345.924 450.372 426.454 528.312 525.015 528.312C623.576 528.312 704.106 450.372 704.106 354.981Z" stroke="black" stroke-width="50"/>
</svg>
