<svg width="1000" height="1000" viewBox="0 0 1000 1000" fill="none" xmlns="http://www.w3.org/2000/svg">
<path fill-rule="evenodd" clip-rule="evenodd" d="M0 500C0 223.858 223.858 0 500 0C776.143 0 1000 223.858 1000 500C1000 776.143 776.143 1000 500 1000C223.858 1000 0 776.143 0 500ZM500.054 498.668C500.054 401.657 578.697 323.014 675.709 323.014C693.586 323.014 707.24 301.521 694.133 289.362C643.204 242.116 575.002 213.231 500.054 213.231C342.411 213.231 214.617 341.026 214.617 498.668C214.617 656.311 342.411 784.107 500.054 784.107C575.002 784.107 643.204 755.221 694.133 707.974C707.24 695.815 693.586 674.322 675.709 674.322C578.697 674.322 500.054 595.679 500.054 498.668Z" fill="#212121"/>
</svg>
